HIERARCHY
ROOT Hips
{
	OFFSET 0.00000 0.00000 0.00000
	CHANNELS 6 Xposition Yposition Zposition Zrotation Yrotation Xrotation 
	JOINT LHipJoint
	{
		OFFSET 0 0 0
		CHANNELS 3 Zrotation Yrotation Xrotation
		JOINT LeftUpLeg
		{
			OFFSET 1.65412 -1.54119 0.76744
			CHANNELS 3 Zrotation Yrotation Xrotation
			JOINT LeftLeg
			{
				OFFSET 2.19550 -6.03209 0.00000
				CHANNELS 3 Zrotation Yrotation Xrotation
				JOINT LeftFoot
				{
					OFFSET 2.38814 -6.56138 0.00000
					CHANNELS 3 Zrotation Yrotation Xrotation
					JOINT LeftToeBase
					{
						OFFSET 0.17337 -0.47632 1.75875
						CHANNELS 3 Zrotation Yrotation Xrotation
						End Site
						{
							OFFSET 0.00000 -0.00000 0.92050
						}
					}
				}
			}
		}
	}
	JOINT RHipJoint
	{
		OFFSET 0 0 0
		CHANNELS 3 Zrotation Yrotation Xrotation
		JOINT RightUpLeg
		{
			OFFSET -1.40291 -1.54119 0.76744
			CHANNELS 3 Zrotation Yrotation Xrotation
			JOINT RightLeg
			{
				OFFSET -2.22156 -6.10370 0.00000
				CHANNELS 3 Zrotation Yrotation Xrotation
				JOINT RightFoot
				{
					OFFSET -2.46840 -6.78188 0.00000
					CHANNELS 3 Zrotation Yrotation Xrotation
					JOINT RightToeBase
					{
						OFFSET -0.15659 -0.43024 1.84117
						CHANNELS 3 Zrotation Yrotation Xrotation
						End Site
						{
							OFFSET -0.00000 -0.00000 0.95587
						}
					}
				}
			}
		}
	}
	JOINT LowerBack
	{
		OFFSET 0 0 0
		CHANNELS 3 Zrotation Yrotation Xrotation
		JOINT Spine
		{
			OFFSET -0.01936 1.82120 -0.32061
			CHANNELS 3 Zrotation Yrotation Xrotation
			JOINT Spine1
			{
				OFFSET -0.00532 1.85767 -0.00071
				CHANNELS 3 Zrotation Yrotation Xrotation
				JOINT Neck
				{
					OFFSET 0 0 0
					CHANNELS 3 Zrotation Yrotation Xrotation
					JOINT Neck1
					{
						OFFSET -0.10687 1.58194 0.10810
						CHANNELS 3 Zrotation Yrotation Xrotation
						JOINT Head
						{
							OFFSET 0.15346 1.57382 -0.25612
							CHANNELS 3 Zrotation Yrotation Xrotation
							End Site
							{
								OFFSET 0.05334 1.61251 -0.10513
							}
						}
					}
				}
				JOINT LeftShoulder
				{
					OFFSET 0 0 0
					CHANNELS 3 Zrotation Yrotation Xrotation
					JOINT LeftArm
					{
						OFFSET 2.85758 0.89498 -0.01485
						CHANNELS 3 Zrotation Yrotation Xrotation
						JOINT LeftForeArm
						{
							OFFSET 4.79185 -0.00000 -0.00000
							CHANNELS 3 Zrotation Yrotation Xrotation
							JOINT LeftHand
							{
								OFFSET 2.65553 -0.00000 0.00000
								CHANNELS 3 Zrotation Yrotation Xrotation
								JOINT LeftFingerBase
								{
									OFFSET 0 0 0
									CHANNELS 3 Zrotation Yrotation Xrotation
									JOINT LeftHandIndex1
									{
										OFFSET 0.74390 -0.00000 0.00000
										CHANNELS 3 Zrotation Yrotation Xrotation
										End Site
										{
											OFFSET 0.59975 -0.00000 0.00000
										}
									}
								}
								JOINT LThumb
								{
									OFFSET 0 0 0
									CHANNELS 3 Zrotation Yrotation Xrotation
									End Site
									{
										OFFSET 0.60891 -0.00000 0.60891
									}
								}
							}
						}
					}
				}
				JOINT RightShoulder
				{
					OFFSET 0 0 0
					CHANNELS 3 Zrotation Yrotation Xrotation
					JOINT RightArm
					{
						OFFSET -2.93906 0.88031 0.02490
						CHANNELS 3 Zrotation Yrotation Xrotation
						JOINT RightForeArm
						{
							OFFSET -4.77254 -0.00000 -0.00000
							CHANNELS 3 Zrotation Yrotation Xrotation
							JOINT RightHand
							{
								OFFSET -2.75995 -0.00000 -0.00000
								CHANNELS 3 Zrotation Yrotation Xrotation
								JOINT RightFingerBase
								{
									OFFSET 0 0 0
									CHANNELS 3 Zrotation Yrotation Xrotation
									JOINT RightHandIndex1
									{
										OFFSET -0.70162 -0.00000 0.00000
										CHANNELS 3 Zrotation Yrotation Xrotation
										End Site
										{
											OFFSET -0.56566 -0.00000 0.00000
										}
									}
								}
								JOINT RThumb
								{
									OFFSET 0 0 0
									CHANNELS 3 Zrotation Yrotation Xrotation
									End Site
									{
										OFFSET -0.57430 -0.00000 0.57430
									}
								}
							}
						}
					}
				}
			}
		}
	}
}
MOTION
Frames: 6
Frame Time: .0083333
0.287 16.1633 -0.4731 0 0 0 0 0 0 -21 0 0 0 0 0 0 0 0 0 0 0 0 0 0 21 0 0 0 0 0 0 0 0 0 0 0 0 0 0 0 0 0 0 0 0 0 0 -16 0 0 21 0 0 11 0 0 0 -8 0 0 0 0 0 0 0 0 0 0 0 0 0 0 0 0 0 0 0 0 8 0 0 0 0 0 0 0 0 0 0 0 0 0 0 0 0 0
0.2870 16.1633 -0.4731 -1.8851 1.7773 -1.8245 0.0000 0.0000 0.0000 -16.1868 -11.4309 9.1626 0.0842 1.8716 5.1509 -0.0042 5.6124 -7.8826 0.3368 -3.7295 -10.3170 0.0000 0.0000 0.0000 19.5690 10.5284 8.3803 -0.1957 -2.8486 7.8575 0.0369 -8.7371 -11.7299 -0.0429 1.3361 -3.6741 -1.6926 0.2108 9.4115 -0.5753 0.0661 0.1240 0.3444 0.0677 -5.1548 -17.0624 -10.5732 0.6446 24.0753 -15.1825 1.1924 9.5844 -7.5488 3.5419 0.0000 0.0000 0.0000 -88.8748 -1.7718 20.4345 11.1339 -18.4931 -1.8182 -0.0000 0.0000 -6.6501 12.4545 11.3779 2.4949 -7.1250 0.0000 -0.0000 -13.0227 41.2679 1.2219 0.0000 0.0000 0.0000 89.5279 -1.8060 44.6871 -12.7951 20.9863 -2.3794 0.0000 0.0000 12.9640 -5.9477 11.6227 -1.2024 7.1250 -0.0000 -0.0000 14.7752 -18.5001 9.6491
0.2890 16.1623 -0.4714 -1.7583 1.8135 -1.7804 0.0000 0.0000 0.0000 -16.3250 -11.4201 9.2736 0.0755 1.7721 4.8761 -0.0124 5.6833 -7.7367 0.3186 -3.6285 -10.0338 0.0000 0.0000 0.0000 19.4111 10.5357 8.2691 -0.2020 -2.8938 7.9832 0.0317 -8.7072 -11.7921 -0.0483 1.4185 -3.9011 -1.7885 0.1794 9.4676 -0.5965 0.0108 0.0836 0.3837 0.0433 -5.2277 -16.4970 -10.3506 0.9799 23.7283 -14.6803 0.0008 9.4638 -7.3535 2.9617 -0.0000 -0.0000 0.0000 -88.8628 -1.6590 20.4043 11.1125 -18.4605 -1.8114 -0.0000 0.0000 -6.6288 12.4358 11.3863 2.4928 -7.1250 0.0000 -0.0000 -13.0409 41.2745 1.2215 -0.0000 -0.0000 0.0000 89.4994 -1.8753 44.7114 -12.8190 21.0215 -2.3880 0.0000 0.0000 12.8833 -5.8518 11.5610 -1.1767 7.1250 -0.0000 -0.0000 14.8454 -18.5636 9.6765
0.2894 16.1621 -0.4699 -1.7590 1.8584 -1.7602 0.0000 0.0000 0.0000 -16.3242 -11.4795 9.2380 0.0774 1.7950 4.9395 -0.0113 5.6861 -7.7740 0.3270 -3.6751 -10.1645 0.0000 0.0000 0.0000 19.4084 10.4803 8.2873 -0.1977 -2.8634 7.8987 0.0394 -8.7701 -11.7297 -0.0567 1.5366 -4.2266 -1.7477 0.1465 9.5160 -0.5766 -0.0285 0.0860 0.3869 0.0233 -5.2516 -16.2547 -10.1648 1.2190 23.6137 -14.2586 -1.0894 9.4609 -7.1894 2.4964 -0.0000 -0.0000 0.0000 -88.8796 -1.6462 20.3181 11.0515 -18.3672 -1.7921 -0.0000 0.0000 -6.5487 12.4291 11.1500 2.4405 -7.1250 0.0000 -0.0000 -12.9901 41.0392 1.2935 -0.0000 -0.0000 0.0000 89.4193 -1.9077 44.8661 -12.8715 21.0986 -2.4068 0.0000 0.0000 12.6528 -5.8123 11.4643 -1.1591 7.1250 -0.0000 -0.0000 14.8794 -18.6588 9.6677
0.2894 16.1627 -0.4682 -1.8008 1.8360 -1.7357 0.0000 0.0000 0.0000 -16.2716 -11.4778 9.1767 0.0796 1.8195 5.0072 -0.0098 5.7155 -7.8632 0.3589 -3.8485 -10.6509 0.0000 0.0000 0.0000 19.4571 10.4910 8.3162 -0.1935 -2.8326 7.8130 0.0438 -8.8051 -11.6927 -0.0544 1.5054 -4.1406 -1.6727 0.1431 9.5174 -0.5407 -0.0224 0.1229 0.3812 0.0244 -5.2138 -16.3070 -9.9921 1.2825 23.7071 -13.8837 -1.9883 9.5592 -7.0324 2.1684 0.0000 -0.0000 0.0000 -88.9187 -1.7517 20.1611 10.9649 -18.2345 -1.7649 -0.0000 0.0000 -6.3708 12.3740 10.9274 2.3815 -7.1250 0.0000 -0.0000 -12.9849 40.8129 1.3668 0.0000 -0.0000 0.0000 89.3906 -1.8534 44.7930 -12.8825 21.1149 -2.4108 0.0000 0.0000 12.6729 -5.9197 11.5276 -1.1870 7.1250 -0.0000 -0.0000 14.8012 -18.5936 9.6355
0.2901 16.1640 -0.4654 -1.8809 1.7921 -1.6985 0.0000 0.0000 0.0000 -16.1763 -11.4593 9.0987 0.0816 1.8432 5.0725 -0.0070 5.6851 -7.9046 0.3662 -3.8872 -10.7596 0.0000 0.0000 0.0000 19.5341 10.5252 8.3415 -0.1891 -2.8009 7.7250 0.0431 -8.7924 -11.6880 -0.0474 1.4049 -3.8636 -1.5542 0.1527 9.4949 -0.5055 0.0060 0.1394 0.3474 0.0356 -5.1843 -16.3210 -9.8164 1.3310 23.7336 -13.5194 -2.7682 9.6252 -6.8755 1.8703 -0.0000 -0.0000 0.0000 -88.9463 -1.7871 20.0815 10.9128 -18.1544 -1.7486 -0.0000 0.0000 -6.2337 12.6599 10.6973 2.3876 -7.1250 0.0000 -0.0000 -12.6852 40.6090 1.3990 -0.0000 -0.0000 0.0000 89.3716 -1.8280 44.7220 -12.8884 21.1235 -2.4129 0.0000 0.0000 12.6894 -5.9488 11.5953 -1.1998 7.1250 -0.0000 -0.0000 14.7764 -18.5267 9.6409
